<svg xmlns="http://www.w3.org/2000/svg" xmlns:xlink="http://www.w3.org/1999/xlink" xmlns:lucid="lucid" width="440" height="920"><g transform="translate(-780 1220)" lucid:page-tab-id="0_0"><path d="M1060-1200c22.1 0 40 22.4 40 50s-17.9 50-40 50H940c-22.1 0-40-22.4-40-50s17.9-50 40-50z" stroke="#000" stroke-opacity="0" stroke-width="7" fill="#263b58"/><use xlink:href="#a" transform="matrix(1,0,0,1,905,-1195) translate(33.099999999999994 48.15)"/><use xlink:href="#b" transform="matrix(1,0,0,1,905,-1195) translate(90.95 48.15)"/><path d="M800-992a8 8 0 0 1 8-8h144a8 8 0 0 1 8 8v84a8 8 0 0 1-8 8H808a8 8 0 0 1-8-8z" stroke="#000" stroke-opacity="0" stroke-width="7" fill="#263b58"/><use xlink:href="#c" transform="matrix(1,0,0,1,805,-995) translate(21.14999999999999 48.15)"/><use xlink:href="#d" transform="matrix(1,0,0,1,805,-995) translate(71.1 48.15)"/><path d="M1000-1097.5v51.5a6 6 0 0 1-6 6H886a6 6 0 0 0-6 6v9.14" stroke="#4c535d" stroke-width="5" fill="none"/><path d="M1002.5-1097.44h-5v-2.56h5z" stroke="#4c535d" stroke-width=".05" fill="#4c535d"/><path d="M880-1008.1l-4.63-14.26h9.26z" stroke="#4c535d" stroke-width="5" fill="#4c535d"/><use xlink:href="#e" transform="matrix(1,0,0,1,947.7866666666667,-1067.8980276734071) translate(0.004999999999999005 13.333333333333332)"/><path d="M1040-792a8 8 0 0 1 8-8h144a8 8 0 0 1 8 8v84a8 8 0 0 1-8 8h-144a8 8 0 0 1-8-8z" stroke="#000" stroke-opacity="0" stroke-width="7" fill="#263b58"/><use xlink:href="#f" transform="matrix(1,0,0,1,1045,-795) translate(5.699999999999989 48.15)"/><use xlink:href="#g" transform="matrix(1,0,0,1,1045,-795) translate(95.45 48.15)"/><path d="M1040-592a8 8 0 0 1 8-8h144a8 8 0 0 1 8 8v84a8 8 0 0 1-8 8h-144a8 8 0 0 1-8-8z" stroke="#000" stroke-opacity="0" stroke-width="7" fill="#263b58"/><use xlink:href="#h" transform="matrix(1,0,0,1,1045,-595) translate(4.174999999999983 36.9)"/><use xlink:href="#i" transform="matrix(1,0,0,1,1045,-595) translate(96.975 36.9)"/><use xlink:href="#j" transform="matrix(1,0,0,1,1045,-595) translate(14.149999999999999 58.5)"/><use xlink:href="#k" transform="matrix(1,0,0,1,1045,-595) translate(57.95 58.5)"/><use xlink:href="#l" transform="matrix(1,0,0,1,1045,-595) translate(83.9 58.5)"/><path d="M1060-420c22.1 0 40 22.4 40 50s-17.9 50-40 50H940c-22.1 0-40-22.4-40-50s17.9-50 40-50z" stroke="#000" stroke-opacity="0" stroke-width="7" fill="#263b58"/><use xlink:href="#m" transform="matrix(1,0,0,1,905,-415) translate(77.575 48.15)"/><path d="M900.38-897.5v31.5a6 6 0 0 0 6 6h166.98a6 6 0 0 1 6 6v29.14" stroke="#4c535d" stroke-width="5" fill="none"/><path d="M902.88-897.44h-5V-900h5z" stroke="#4c535d" stroke-width=".05" fill="#4c535d"/><path d="M1079.36-808.1l-4.64-14.26h9.27z" stroke="#4c535d" stroke-width="5" fill="#4c535d"/><use xlink:href="#n" transform="matrix(1,0,0,1,968.2903019226858,-881.7777367663488) translate(0.004999999999999005 13.333333333333332)"/><path d="M1000-1097.5v51.5a6 6 0 0 0 6 6h108a6 6 0 0 1 6 6v209.14" stroke="#3a414a" stroke-width="5" fill="none"/><path d="M1002.5-1097.44h-5v-2.56h5z" stroke="#3a414a" stroke-width=".05" fill="#3a414a"/><path d="M1120-808.1l-4.63-14.26h9.27z" stroke="#3a414a" stroke-width="5" fill="#3a414a"/><path d="M1122.5-624.86h-5v-35.57h5zm0-53.35h-5v-19.3h5z" stroke="#4c535d" stroke-width=".05" fill="#4c535d"/><path d="M1122.5-697.44h-5V-700h5z" fill="#4c535d"/><path d="M1122.53-697.4h-5.06v-2.63h5.06zm-5-2.58v2.52h4.94v-2.5z" stroke="#4c535d" stroke-width=".05" fill="#4c535d"/><path d="M1120-608.1l-4.63-14.26h9.27z" fill="#4c535d"/><path d="M1120-600l-8.08-24.86h16.16zm-1.2-19.86l1.2 3.68 1.2-3.68z" stroke="#4c535d" stroke-width=".05" fill="#4c535d"/><use xlink:href="#o" transform="matrix(1,0,0,1,1026.9244444444444,-678.2104634497061) translate(0.0049999999999954525 13.333333333333332)"/><use xlink:href="#p" transform="matrix(1,0,0,1,1026.9244444444444,-678.2104634497061) translate(53.871666666666655 13.333333333333332)"/><use xlink:href="#q" transform="matrix(1,0,0,1,1026.9244444444444,-678.2104634497061) translate(113.88944444444442 13.333333333333332)"/><use xlink:href="#r" transform="matrix(1,0,0,1,1026.9244444444444,-678.2104634497061) translate(127.06277777777775 13.333333333333332)"/><path d="M1120-497.5v31.5a6 6 0 0 1-6 6h-70.67a6 6 0 0 0-6 6v9.14" stroke="#4c535d" stroke-width="5" fill="none"/><path d="M1122.5-497.44h-5V-500h5z" stroke="#4c535d" stroke-width=".05" fill="#4c535d"/><path d="M1037.33-428.1l-4.63-14.26h9.27z" stroke="#4c535d" stroke-width="5" fill="#4c535d"/><use xlink:href="#s" transform="matrix(1,0,0,1,1055.0755555555556,-482.12353455818004) translate(0.004999999999999005 13.333333333333332)"/><path d="M859.75-897.5v71.5a6 6 0 0 0 6 6h89.58a6 6 0 0 1 6 6v369.14" stroke="#4c535d" stroke-width="5" fill="none"/><path d="M862.25-897.44h-5V-900h5z" stroke="#4c535d" stroke-width=".05" fill="#4c535d"/><path d="M961.33-428.1l-4.63-14.26h9.27z" stroke="#4c535d" stroke-width="5" fill="#4c535d"/><g><use xlink:href="#t" transform="matrix(1,0,0,1,867.7499984962567,-848.9008349518327) translate(0.004999999999999005 13.333333333333332)"/></g><path d="M1117.5-639.95h-37.17m-37.16 0H1006l-.94.07-.9.22-.88.36-.8.5-.72.6-.6.72-.5.8-.37.87-.23.9-.07.95v21m0 21.02v42.02m0 21v42.02m0 21v21.02M1117.44-639.95h2.56" stroke="#4c535d" stroke-width="5" fill="none"/><path d="M1000-428.1l-4.63-14.26h9.26z" stroke="#4c535d" stroke-width="5" fill="#4c535d"/><path d="M1030.67-1097.5v31.5a6 6 0 0 0 6 6H1154a6 6 0 0 1 6 6v229.14" stroke="#3a414a" stroke-width="5" fill="none"/><path d="M1033.17-1097.44h-5v-2.56h5z" stroke="#3a414a" stroke-width=".05" fill="#3a414a"/><path d="M1160-808.1l-4.63-14.26h9.27z" stroke="#3a414a" stroke-width="5" fill="#3a414a"/><g><use xlink:href="#u" transform="matrix(1,0,0,1,1068.6130453034482,-1081.7777777777778) translate(0.004999999999999005 13.333333333333332)"/></g><defs><path fill="#fff" d="M258-177c0 46-32 67-71 75L235 0h-57l-41-94H76L58 0H6l48-248c89 2 204-19 204 71zm-53 3c0-46-63-30-107-33l-14 73c51-2 120 13 121-40" id="v"/><path fill="#fff" d="M70-104c-4 71 81 81 132 50l8-40h-60l7-37h108L246-31C216-10 181 3 130 3 60 2 18-32 18-102c-1-106 79-169 188-144 33 8 53 31 63 63l-50 14c-6-26-25-42-56-42-62 0-89 43-93 107" id="w"/><path fill="#fff" d="M240-76C239 26 104-5 6 0l48-248c79 4 193-21 193 58 0 38-25 53-57 60 29 5 49 21 50 54zm-45-106c0-40-58-24-96-27l-12 61c45-3 108 12 108-34zm-7 105c0-44-65-31-109-33L66-38c51-3 122 14 122-39" id="x"/><path fill="#fff" d="M250-142C247-53 197 0 108 0H6l48-248c105-5 200 3 196 106zm-49 2c1-57-42-72-103-68L66-40c84 6 135-22 135-100" id="y"/><g id="a"><use transform="matrix(0.05,0,0,0.05,0,0)" xlink:href="#v"/><use transform="matrix(0.05,0,0,0.05,12.950000000000001,0)" xlink:href="#w"/><use transform="matrix(0.05,0,0,0.05,26.950000000000003,0)" xlink:href="#x"/><use transform="matrix(0.05,0,0,0.05,39.900000000000006,0)" xlink:href="#y"/></g><path fill="#fff" d="M161-211c-63 0-91 46-91 110 0 39 17 65 58 64 38-1 60-20 74-45l40 20C220-23 184 0 125 4 9 13-10-144 57-208c33-50 166-62 196-1 4 8 9 18 11 27l-48 12c-6-24-25-41-55-41" id="z"/><path fill="#fff" d="M166-52c-4 17 5 29 24 23l-3 27c-30 11-74 1-67-34C105-15 91 4 56 4 23 4 3-15 2-49c0-64 63-67 128-67 10-22 3-53-29-45-13 3-22 10-25 24l-46-5c5-64 156-77 153 0-1 33-11 60-17 90zM97-88c-44-9-64 57-19 57 31 0 42-28 47-57H97" id="A"/><path fill="#fff" d="M255-194c90 0 29 129 24 194h-49l25-136c-7-39-53-14-60 9-12 38-18 85-28 127h-49l25-136c2-29-39-23-50-7C69-108 68-47 56 0H6l36-190h48c-1 10-6 24-4 32 12-20 27-36 57-36s46 15 50 41c14-21 29-41 62-41" id="B"/><path fill="#fff" d="M114-194c63-2 87 48 72 110H63c-3 28 1 55 31 54 21-1 32-13 37-29l44 13C160-14 137 4 91 4 41 4 11-22 11-73c0-71 33-119 103-121zm30 77c14-47-50-61-67-22-3 6-6 13-8 22h75" id="C"/><path fill="#fff" d="M84-151c13-25 34-51 72-40l-8 41C67-170 71-64 56 0H6l36-190h47" id="D"/><g id="b"><use transform="matrix(0.05,0,0,0.05,0,0)" xlink:href="#z"/><use transform="matrix(0.05,0,0,0.05,12.950000000000001,0)" xlink:href="#A"/><use transform="matrix(0.05,0,0,0.05,22.950000000000003,0)" xlink:href="#B"/><use transform="matrix(0.05,0,0,0.05,38.95,0)" xlink:href="#C"/><use transform="matrix(0.05,0,0,0.05,48.95,0)" xlink:href="#D"/><use transform="matrix(0.05,0,0,0.05,55.95,0)" xlink:href="#A"/></g><path fill="#fff" d="M212 0l43-212L151 0h-37L90-212C82-137 65-70 52 0H6l48-248h70l20 187 93-187h69L258 0h-46" id="E"/><path fill="#fff" d="M144-137c-1-29-70-35-71-2 16 41 103 10 103 80C176 9 79 16 32-9 18-17 9-31 4-48l44-6c3 32 80 36 82 1-15-42-103-11-103-82 0-77 157-79 161-8" id="F"/><path fill="#fff" d="M128 0L95-87 70-74 55 0H6l51-261h49L77-111l82-79h56l-83 74L180 0h-52" id="G"/><g id="c"><use transform="matrix(0.05,0,0,0.05,0,0)" xlink:href="#E"/><use transform="matrix(0.05,0,0,0.05,14.950000000000001,0)" xlink:href="#A"/><use transform="matrix(0.05,0,0,0.05,24.950000000000003,0)" xlink:href="#F"/><use transform="matrix(0.05,0,0,0.05,34.95,0)" xlink:href="#G"/></g><path fill="#fff" d="M10-72l8-43h92l-9 43H10" id="H"/><path fill="#fff" d="M155 0L90-199 52 0H6l48-248h62l66 201 38-201h46L218 0h-63" id="I"/><g id="d"><use transform="matrix(0.05,0,0,0.05,0,0)" xlink:href="#v"/><use transform="matrix(0.05,0,0,0.05,12.950000000000001,0)" xlink:href="#H"/><use transform="matrix(0.05,0,0,0.05,18.900000000000002,0)" xlink:href="#z"/><use transform="matrix(0.05,0,0,0.05,31.85,0)" xlink:href="#I"/><use transform="matrix(0.05,0,0,0.05,44.800000000000004,0)" xlink:href="#I"/></g><path fill="#333" d="M775-580v194c-3 89-75 152-179 139L775-34V0H631L423-247H187V0H55v-719h580c77 0 140 63 140 139zM194-379h441c4 0 7-3 7-7v-194c0-4-3-7-7-7H194c-4 0-7 3-7 7v194c0 4 3 7 7 7" id="J"/><path fill="#333" d="M776-581v56H643v-56c0-4-3-7-7-7H195c-4 0-7 3-7 7v442c0 4 3 7 7 7h441c4 0 7-3 7-7v-136H480v-132h296v268C776-62 713 0 636 0H195C118 0 56-62 56-139v-442c0-77 62-139 139-139h441c77 0 140 62 140 139" id="K"/><path fill="#333" d="M750-581c0 65 9 142-10 192 57 49 39 153 39 250C779-62 716 0 639 0H59v-720h552c76 0 139 62 139 139zm-139-7H198c-4 0-7 3-7 7v141c0 4 3 7 7 7h413c3 0 6-3 6-7v-141c0-4-3-7-6-7zm35 449v-155c0-4-3-6-7-6H198c-4 0-7 2-7 6v155c0 4 3 7 7 7h441c4 0 7-3 7-7" id="L"/><g id="e"><use transform="matrix(0.017777777777777774,0,0,0.017777777777777774,0,0)" xlink:href="#J"/><use transform="matrix(0.017777777777777774,0,0,0.017777777777777774,14.666666666666664,0)" xlink:href="#K"/><use transform="matrix(0.017777777777777774,0,0,0.017777777777777774,29.422222222222217,0)" xlink:href="#L"/></g><path fill="#fff" d="M183 0l-10-63H79L44 0H-7l138-248h61L234 0h-51zm-14-102l-15-108c-16 38-36 73-55 108h70" id="M"/><path fill="#fff" d="M6 0l51-261h49L55 0H6" id="N"/><path fill="#fff" d="M45-171c29-32 103-29 114 14 2-11 5-23 8-33h47L176-2c-3 70-92 96-155 64C9 56 1 42-1 25l50-5c2 28 48 27 63 11 13-13 20-45 21-66-13 20-30 35-62 36-87 3-60-134-26-172zM94-35c41-3 55-43 55-86 0-24-12-39-35-39-43 0-51 48-51 90 0 22 9 37 31 35" id="O"/><path fill="#fff" d="M124-194c51 0 84 22 84 74C207-44 167 4 94 4 43 4 11-23 11-74c0-74 41-120 113-120zM99-30c46 0 58-42 58-86 0-27-11-44-37-44-44 0-55 40-57 84-1 27 10 45 36 46" id="P"/><path fill="#fff" d="M50-224l7-37h49l-7 37H50zM6 0l37-190h49L55 0H6" id="Q"/><path fill="#fff" d="M72-63c-8 23 5 39 32 30L98-1C54 14 12-6 23-64l18-93H15l7-33h28l24-45h31l-8 45h35l-6 33H90" id="R"/><path fill="#fff" d="M150-105c8-23 8-54-22-51-68 7-54 98-72 156H6l50-261h50L85-158c15-20 33-36 66-36 95 0 34 128 28 194h-49" id="S"/><g id="f"><use transform="matrix(0.05,0,0,0.05,0,0)" xlink:href="#M"/><use transform="matrix(0.05,0,0,0.05,12.950000000000001,0)" xlink:href="#N"/><use transform="matrix(0.05,0,0,0.05,17.950000000000003,0)" xlink:href="#O"/><use transform="matrix(0.05,0,0,0.05,28.900000000000006,0)" xlink:href="#P"/><use transform="matrix(0.05,0,0,0.05,39.85000000000001,0)" xlink:href="#D"/><use transform="matrix(0.05,0,0,0.05,46.85000000000001,0)" xlink:href="#Q"/><use transform="matrix(0.05,0,0,0.05,51.85,0)" xlink:href="#R"/><use transform="matrix(0.05,0,0,0.05,57.80000000000001,0)" xlink:href="#S"/><use transform="matrix(0.05,0,0,0.05,68.75000000000001,0)" xlink:href="#B"/></g><path fill="#fff" d="M131-73c0-31-25-35-58-33l8-40c36 2 64-5 65-39 0-17-10-28-28-27-23 1-35 12-41 32l-47-9c11-39 39-63 90-62 44 1 76 17 76 60 0 42-26 59-63 64 28 5 48 20 48 54C181 22 9 32 3-60l49-7c3 21 16 31 40 31s39-13 39-37" id="T"/><g id="g"><use transform="matrix(0.05,0,0,0.05,0,0)" xlink:href="#T"/><use transform="matrix(0.05,0,0,0.05,10,0)" xlink:href="#y"/><use transform="matrix(0.05,0,0,0.05,22.950000000000003,0)" xlink:href="#x"/><use transform="matrix(0.05,0,0,0.05,35.900000000000006,0)" xlink:href="#x"/></g><path fill="#fff" d="M241-173c-1 82-78 91-166 86L58 0H6l48-248c87 0 188-12 187 75zm-53 2c0-43-48-36-90-36l-15 80c50 0 105 7 105-44" id="U"/><path fill="#fff" d="M50-224l7-37h49l-7 37H50zm1 246C45 64 7 85-39 71l7-33c23 5 33-8 36-27l39-201h49" id="V"/><path fill="#fff" d="M67-101c-8 29-7 73 27 71 23-2 32-16 39-37l48 9C170-19 141 4 91 4 36 4 7-28 12-86c6-75 61-124 140-103 26 7 40 29 43 59l-50 4c-1-20-9-34-29-34-35 0-41 29-49 59" id="W"/><path fill="#fff" d="M151-194c95 0 34 128 28 194h-49l25-134c0-29-45-25-59-9C67-111 69-48 56 0H6l36-190h47l-4 32c15-20 33-36 66-36" id="X"/><g id="h"><use transform="matrix(0.05,0,0,0.05,0,0)" xlink:href="#U"/><use transform="matrix(0.05,0,0,0.05,12,0)" xlink:href="#D"/><use transform="matrix(0.05,0,0,0.05,19,0)" xlink:href="#P"/><use transform="matrix(0.05,0,0,0.05,29.950000000000003,0)" xlink:href="#V"/><use transform="matrix(0.05,0,0,0.05,34.95,0)" xlink:href="#C"/><use transform="matrix(0.05,0,0,0.05,44.95,0)" xlink:href="#W"/><use transform="matrix(0.05,0,0,0.05,54.95,0)" xlink:href="#R"/><use transform="matrix(0.05,0,0,0.05,60.900000000000006,0)" xlink:href="#Q"/><use transform="matrix(0.05,0,0,0.05,65.9,0)" xlink:href="#X"/><use transform="matrix(0.05,0,0,0.05,76.85000000000001,0)" xlink:href="#O"/></g><g id="i"><use transform="matrix(0.05,0,0,0.05,0,0)" xlink:href="#T"/><use transform="matrix(0.05,0,0,0.05,10,0)" xlink:href="#y"/><use transform="matrix(0.05,0,0,0.05,22.950000000000003,0)" xlink:href="#x"/><use transform="matrix(0.05,0,0,0.05,35.900000000000006,0)" xlink:href="#x"/></g><g id="j"><use transform="matrix(0.05,0,0,0.05,0,0)" xlink:href="#P"/><use transform="matrix(0.05,0,0,0.05,10.950000000000001,0)" xlink:href="#X"/><use transform="matrix(0.05,0,0,0.05,21.900000000000002,0)" xlink:href="#R"/><use transform="matrix(0.05,0,0,0.05,27.85,0)" xlink:href="#P"/></g><g id="k"><use transform="matrix(0.05,0,0,0.05,0,0)" xlink:href="#A"/><use transform="matrix(0.05,0,0,0.05,10,0)" xlink:href="#X"/></g><g id="l"><use transform="matrix(0.05,0,0,0.05,0,0)" xlink:href="#Q"/><use transform="matrix(0.05,0,0,0.05,5,0)" xlink:href="#B"/><use transform="matrix(0.05,0,0,0.05,21,0)" xlink:href="#A"/><use transform="matrix(0.05,0,0,0.05,31,0)" xlink:href="#O"/><use transform="matrix(0.05,0,0,0.05,41.95,0)" xlink:href="#C"/></g><path fill="#fff" d="M156-122c2-23-7-37-28-37-47 0-58 44-58 89 0 24 12 40 36 40 43 0 47-49 50-92zM-8 75l50-265h48c0 10-3 24-3 30 22-50 127-45 121 29-6 73-21 135-92 135-29 0-46-14-55-35L41 75H-8" id="Y"/><g id="m"><use transform="matrix(0.05,0,0,0.05,0,0)" xlink:href="#M"/><use transform="matrix(0.05,0,0,0.05,12.950000000000001,0)" xlink:href="#Y"/><use transform="matrix(0.05,0,0,0.05,23.900000000000002,0)" xlink:href="#Y"/></g><path fill="#333" d="M773-580c76 0 138 62 138 138V0H781v-442c0-4-3-7-8-7H555c-4 0-6 3-6 7V0H417v-442c0-4-3-7-6-7H192c-4 0-7 3-7 7V0H54v-580h719" id="Z"/><path fill="#333" d="M503-580c76 0 138 62 138 138V0H190C114 0 52-62 52-138v-218h458v-86c0-4-3-7-7-7H52v-131h451zm7 449v-93H183v86c0 4 3 7 7 7h320" id="aa"/><path fill="#333" d="M499-580c85 2 147 69 138 163H506c-2-11 5-32-7-32H186c-4 0-7 3-7 7v80c0 4 3 6 7 6h313c77 0 138 62 138 138v80C637-62 576 0 499 0H186C102-2 39-69 48-163h131c2 11-5 32 7 32h313c4 0 7-3 7-7v-80c0-4-3-6-7-6H186c-76 0-138-62-138-138v-80c0-76 62-138 138-138h313" id="ab"/><path fill="#333" d="M495-580h141v34L404-290 636-34V0H495L288-224H185V0H54v-770h131v414h103" id="ac"/><g id="n"><use transform="matrix(0.017777777777777774,0,0,0.017777777777777774,0,0)" xlink:href="#Z"/><use transform="matrix(0.017777777777777774,0,0,0.017777777777777774,16.67555555555555,0)" xlink:href="#aa"/><use transform="matrix(0.017777777777777774,0,0,0.017777777777777774,28.60444444444444,0)" xlink:href="#ab"/><use transform="matrix(0.017777777777777774,0,0,0.017777777777777774,40.35555555555555,0)" xlink:href="#ac"/></g><path fill="#333" d="M505-580c76 0 138 62 138 138v304C643-62 581 0 505 0H185v230H54v-810h451zm7 442v-304c0-4-3-7-7-7H192c-4 0-7 3-7 7v304c0 4 3 7 7 7h313c4 0 7-3 7-7" id="ad"/><path fill="#333" d="M189-580h313c76 0 138 62 138 138v304C640-62 578 0 502 0H189C113 0 51-62 51-138v-304c0-76 62-138 138-138zm313 131H189c-4 0-7 3-7 7v304c0 4 3 7 7 7h313c4 0 7-3 7-7v-304c0-4-3-7-7-7" id="ae"/><path fill="#333" d="M52 0v-580h131V0H52zm0-770h131v132H52v-132" id="af"/><path fill="#333" d="M505-580c76 0 138 62 138 138V0H512v-442c0-4-3-7-7-7H192c-4 0-7 3-7 7V0H54v-580h451" id="ag"/><path fill="#333" d="M410-449H184v311c0 4 3 7 7 7h219V0H191C114 0 53-62 53-138v-632h131v190h226v131" id="ah"/><g id="o"><use transform="matrix(0.017777777777777774,0,0,0.017777777777777774,0,0)" xlink:href="#ad"/><use transform="matrix(0.017777777777777774,0,0,0.017777777777777774,11.804444444444442,0)" xlink:href="#ae"/><use transform="matrix(0.017777777777777774,0,0,0.017777777777777774,24.106666666666662,0)" xlink:href="#af"/><use transform="matrix(0.017777777777777774,0,0,0.017777777777777774,28.24888888888888,0)" xlink:href="#ag"/><use transform="matrix(0.017777777777777774,0,0,0.017777777777777774,40.62222222222222,0)" xlink:href="#ah"/></g><path fill="#333" d="M189-131h451V0H189C113 0 51-62 51-138v-304c0-76 62-138 138-138h449v131H189c-4 0-7 3-7 7v304c0 4 3 7 7 7" id="ai"/><path fill="#333" d="M52-770h132v632c0 4 2 7 6 7h117V0H190C114 0 52-62 52-138v-632" id="aj"/><path fill="#333" d="M511-580h131v442C642-62 580 0 504 0H191C114 0 53-62 53-138v-442h131v442c0 4 3 7 7 7h313c4 0 7-3 7-7v-442" id="ak"/><path fill="#333" d="M482-770h131V0H161C85 0 23-62 23-138v-304c0-76 62-138 138-138h321v-190zM161-131h314c4 0 7-3 7-7v-304c0-4-3-7-7-7H161c-4 0-6 3-6 7v304c0 4 2 7 6 7" id="al"/><g id="p"><use transform="matrix(0.017777777777777774,0,0,0.017777777777777774,0,0)" xlink:href="#ai"/><use transform="matrix(0.017777777777777774,0,0,0.017777777777777774,12.355555555555553,0)" xlink:href="#aj"/><use transform="matrix(0.017777777777777774,0,0,0.017777777777777774,18.471111111111107,0)" xlink:href="#ae"/><use transform="matrix(0.017777777777777774,0,0,0.017777777777777774,30.328888888888883,0)" xlink:href="#ak"/><use transform="matrix(0.017777777777777774,0,0,0.017777777777777774,42.68444444444444,0)" xlink:href="#al"/></g><path fill="#333" d="M154-499h131v138h141v131H285v140H154v-140H17v-131h137v-138" id="am"/><use transform="matrix(0.017777777777777774,0,0,0.017777777777777774,0,0)" xlink:href="#am" id="q"/><path fill="#333" d="M738-582c0 65 9 143-10 194 57 49 38 154 38 250C766-62 705 0 629 0H191C100-3 40-75 53-181h131c3 16-7 45 7 50h438c3 0 6-3 6-7v-156c0-4-3-7-6-7H177v-131h423c4 0 7-3 7-6v-144c0-4-3-7-7-7H191c-4 0-7 3-7 7v52H53v-52c0-76 62-138 138-138h409c76 0 138 62 138 138" id="an"/><path fill="#333" d="M58-720h580c77 0 140 62 140 139v442C778-62 715 0 638 0H58v-720zm587 581v-442c0-4-3-7-7-7H197c-4 0-7 3-7 7v442c0 4 3 7 7 7h441c4 0 7-3 7-7" id="ao"/><g id="r"><use transform="matrix(0.017777777777777774,0,0,0.017777777777777774,0,0)" xlink:href="#an"/><use transform="matrix(0.017777777777777774,0,0,0.017777777777777774,14.684444444444441,0)" xlink:href="#ao"/><use transform="matrix(0.017777777777777774,0,0,0.017777777777777774,29.511111111111106,0)" xlink:href="#L"/><use transform="matrix(0.017777777777777774,0,0,0.017777777777777774,44.30222222222221,0)" xlink:href="#L"/></g><path fill="#333" d="M630 92c0 76-61 138-137 138H138V98h355c3 0 6-2 6-6V0H179C103 0 41-62 41-138v-304c0-76 62-138 138-138h314c76 0 137 62 137 138V92zM179-131h314c3 0 6-3 6-7v-304c0-4-3-7-6-7H179c-4 0-7 3-7 7v304c0 4 3 7 7 7" id="ap"/><path fill="#333" d="M502-580c76 0 138 62 138 138v218H182v86c0 4 3 7 7 7h451V0H189C113 0 51-62 51-138v-304c0-76 62-138 138-138h313zM182-356h327v-86c0-4-3-7-7-7H189c-4 0-7 3-7 7v86" id="aq"/><g id="s"><use transform="matrix(0.017777777777777774,0,0,0.017777777777777774,0,0)" xlink:href="#af"/><use transform="matrix(0.017777777777777774,0,0,0.017777777777777774,4.142222222222221,0)" xlink:href="#Z"/><use transform="matrix(0.017777777777777774,0,0,0.017777777777777774,20.817777777777774,0)" xlink:href="#aa"/><use transform="matrix(0.017777777777777774,0,0,0.017777777777777774,32.888888888888886,0)" xlink:href="#ap"/><use transform="matrix(0.017777777777777774,0,0,0.017777777777777774,44.62222222222222,0)" xlink:href="#aq"/></g><path fill="#333" d="M505-580c76 0 138 62 138 138v304C643-62 581 0 505 0H54v-770h131v190h320zm7 442v-304c0-4-3-7-7-7H192c-4 0-7 3-7 7v304c0 4 3 7 7 7h313c4 0 7-3 7-7" id="ar"/><g id="t"><use transform="matrix(0.017777777777777774,0,0,0.017777777777777774,0,0)" xlink:href="#aj"/><use transform="matrix(0.017777777777777774,0,0,0.017777777777777774,6.115555555555554,0)" xlink:href="#aa"/><use transform="matrix(0.017777777777777774,0,0,0.017777777777777774,18.115555555555552,0)" xlink:href="#ar"/><use transform="matrix(0.017777777777777774,0,0,0.017777777777777774,29.97333333333333,0)" xlink:href="#aj"/><use transform="matrix(0.017777777777777774,0,0,0.017777777777777774,36.08888888888888,0)" xlink:href="#aq"/></g><path fill="#333" d="M505-580c75 0 138 62 138 138V0H512v-442c0-4-3-7-7-7H192c-4 0-7 3-7 7V0H54v-770h131v190h320" id="as"/><g id="u"><use transform="matrix(0.017777777777777774,0,0,0.017777777777777774,0,0)" xlink:href="#al"/><use transform="matrix(0.017777777777777774,0,0,0.017777777777777774,11.448888888888886,0)" xlink:href="#aq"/><use transform="matrix(0.017777777777777774,0,0,0.017777777777777774,23.751111111111108,0)" xlink:href="#ad"/><use transform="matrix(0.017777777777777774,0,0,0.017777777777777774,35.55555555555555,0)" xlink:href="#ah"/><use transform="matrix(0.017777777777777774,0,0,0.017777777777777774,43.32444444444444,0)" xlink:href="#as"/></g></defs></g></svg>